<?xml version="1.0" encoding="iso-8859-1"?>
<!-- Generator: Adobe Illustrator 19.0.0, SVG Export Plug-In . SVG Version: 6.00 Build 0)  -->
<svg version="1.1" id="Layer_1" xmlns="http://www.w3.org/2000/svg" xmlns:xlink="http://www.w3.org/1999/xlink" x="0px" y="0px"
	 viewBox="0 0 463 463" style="enable-background:new 0 0 463 463;" xml:space="preserve">
<g>
	<g>
		<path d="M447.5,167.993h-96c-0.157,0-0.31,0.014-0.465,0.023c-30.937,0.009-58.623,2.4-76.145,4.368
			c-4.092,0.459-7.948,1.695-11.413,3.609h-63.955c-3.466-1.913-7.322-3.149-11.413-3.609c-17.522-1.968-45.21-4.359-76.15-4.368
			c-0.153-0.009-0.304-0.023-0.459-0.023h-96c-8.547,0-15.5,6.953-15.5,15.5v16c0,8.547,6.953,15.5,15.5,15.5h10.404l5.343,31.44
			c3.594,21.148,19.799,37.85,41.284,42.549c20.371,4.456,40.059,6.024,57.686,6.024c16.964,0,32.018-1.453,43.932-3.185
			c16.611-2.414,29.489-14.985,32.044-31.282l4.866-31.037c0.237-0.177,0.468-0.365,0.688-0.573
			c2.883-2.739,9.785-5.937,19.755-5.937c9.97,0,16.872,3.198,19.755,5.937c0.22,0.209,0.451,0.396,0.688,0.573l4.866,31.037
			c2.555,16.296,15.433,28.868,32.044,31.282c11.915,1.732,26.966,3.185,43.932,3.185c17.625,0,37.317-1.569,57.686-6.024
			c21.485-4.7,37.69-21.401,41.284-42.549l5.343-31.44h10.4c8.547,0,15.5-6.953,15.5-15.5v-16
			C463,174.946,456.047,167.993,447.5,167.993z M29.846,183.607c-3.591,4.862-5.575,10.524-5.82,16.386H15.5
			c-0.275,0-0.5-0.224-0.5-0.5v-16c0-0.276,0.225-0.5,0.5-0.5h14.823C30.164,183.199,30,183.397,29.846,183.607z M199.821,204.334
			l-8.448,53.883c-1.53,9.759-9.319,17.298-19.384,18.761c-23.061,3.351-58.479,5.613-96.254-2.649
			c-15.479-3.386-27.138-15.322-29.702-30.409l-6.824-40.16c-0.675-3.975,0.284-7.968,2.703-11.243
			c2.435-3.296,6.019-5.406,10.092-5.939c20.012-2.62,40.528-3.572,59.793-3.572c30.278,0,57.455,2.354,74.639,4.284
			c4.259,0.478,8.006,2.579,10.551,5.916C199.436,196.417,200.442,200.368,199.821,204.334z M248.361,206.657l0.649,4.139
			c-5.259-1.81-11.256-2.803-17.51-2.803c-6.254,0-12.251,0.993-17.51,2.803l0.649-4.139c0.845-5.387,0.205-10.755-1.792-15.665
			h37.306C248.156,195.902,247.517,201.269,248.361,206.657z M423.791,203.761l-6.824,40.159
			c-2.564,15.086-14.223,27.022-29.702,30.409c-37.774,8.262-73.194,6-96.254,2.649c-10.064-1.463-17.854-9.002-19.384-18.761
			l-8.447-53.883c-0.621-3.966,0.385-7.918,2.834-11.128c2.545-3.337,6.292-5.438,10.551-5.916
			c28.117-3.158,82.97-7.449,134.432-0.711c4.073,0.533,7.657,2.643,10.092,5.939C423.507,195.793,424.466,199.787,423.791,203.761z
			 M448,199.493c0,0.276-0.225,0.5-0.5,0.5h-8.525c-0.246-5.862-2.229-11.524-5.82-16.386c-0.155-0.209-0.318-0.409-0.477-0.614
			H447.5c0.275,0,0.5,0.224,0.5,0.5V199.493z"/>
	</g>
</g>
<g>
</g>
<g>
</g>
<g>
</g>
<g>
</g>
<g>
</g>
<g>
</g>
<g>
</g>
<g>
</g>
<g>
</g>
<g>
</g>
<g>
</g>
<g>
</g>
<g>
</g>
<g>
</g>
<g>
</g>
</svg>
